<svg width="1200" height="630" viewBox="0 0 1200 630" fill="none" xmlns="http://www.w3.org/2000/svg">
  <defs>
    <linearGradient id="bg" x1="0" y1="0" x2="1200" y2="630" gradientUnits="userSpaceOnUse">
      <stop stop-color="#020617"/>
      <stop offset="0.55" stop-color="#0F172A"/>
      <stop offset="1" stop-color="#111827"/>
    </linearGradient>
    <linearGradient id="accent" x1="240" y1="120" x2="960" y2="510" gradientUnits="userSpaceOnUse">
      <stop stop-color="#EF4444"/>
      <stop offset="1" stop-color="#22D3EE"/>
    </linearGradient>
    <filter id="glow" x="0" y="0" width="1200" height="630" filterUnits="userSpaceOnUse">
      <feGaussianBlur stdDeviation="18" result="blur"/>
      <feColorMatrix in="blur" type="matrix" values="1 0 0 0 0.1 0 1 0 0 0.5 0 0 1 0 0.8 0 0 0 0.75 0" result="glow"/>
      <feMerge>
        <feMergeNode in="glow"/>
        <feMergeNode in="SourceGraphic"/>
      </feMerge>
    </filter>
  </defs>

  <rect width="1200" height="630" fill="url(#bg)"/>
  <circle cx="970" cy="140" r="210" fill="#0EA5E9" fill-opacity="0.12"/>
  <circle cx="260" cy="520" r="230" fill="#EF4444" fill-opacity="0.08"/>
  <path d="M120 470C210 390 280 420 370 350C470 270 545 155 695 180C850 206 905 340 1040 300" stroke="url(#accent)" stroke-width="7" stroke-linecap="round" stroke-dasharray="1 18" opacity="0.7"/>
  <path d="M130 180C260 130 360 165 465 245C565 321 630 375 758 375C878 375 950 323 1078 225" stroke="#22D3EE" stroke-width="2" stroke-linecap="round" opacity="0.35"/>
  <g filter="url(#glow)">
    <rect x="392" y="160" width="416" height="310" rx="36" fill="#0B1220" stroke="#334155" stroke-width="2"/>
    <rect x="428" y="196" width="344" height="56" rx="14" fill="#111827" stroke="#1F2937"/>
    <text x="600" y="234" text-anchor="middle" fill="#F8FAFC" font-family="Arial, Helvetica, sans-serif" font-size="28" font-weight="700">WebSecSuite</text>
    <text x="600" y="285" text-anchor="middle" fill="#94A3B8" font-family="Arial, Helvetica, sans-serif" font-size="18">Web Security Testing Platform</text>
    <g>
      <rect x="460" y="326" width="120" height="84" rx="16" fill="#111827" stroke="#334155"/>
      <rect x="590" y="326" width="120" height="84" rx="16" fill="#111827" stroke="#334155"/>
      <rect x="525" y="420" width="150" height="34" rx="17" fill="url(#accent)"/>
      <text x="600" y="443" text-anchor="middle" fill="#020617" font-family="Arial, Helvetica, sans-serif" font-size="14" font-weight="700">Burp-inspired UI</text>
    </g>
  </g>

  <g opacity="0.5">
    <circle cx="230" cy="140" r="5" fill="#E2E8F0"/>
    <circle cx="310" cy="210" r="4" fill="#22D3EE"/>
    <circle cx="900" cy="470" r="5" fill="#EF4444"/>
    <circle cx="1030" cy="220" r="4" fill="#E2E8F0"/>
    <circle cx="165" cy="380" r="4" fill="#22D3EE"/>
    <circle cx="980" cy="110" r="5" fill="#EF4444"/>
  </g>
</svg>
